<?xml version="1.0" standalone="no"?>
<!DOCTYPE svg PUBLIC "-//W3C//DTD SVG 20010904//EN"
 "http://www.w3.org/TR/2001/REC-SVG-20010904/DTD/svg10.dtd">
<svg version="1.0" xmlns="http://www.w3.org/2000/svg"
 width="2048.000000pt" height="2048.000000pt" viewBox="0 0 2048.000000 2048.000000"
 preserveAspectRatio="xMidYMid meet">

<g transform="translate(0.000000,2048.000000) scale(0.100000,-0.100000)"
fill="#000000" stroke="none">
<path d="M10243 19217 c-4 -8 -262 -160 -573 -339 -311 -179 -972 -560 -1470
-848 -498 -287 -993 -571 -1101 -630 -174 -96 -4391 -2527 -4544 -2620 -33
-20 -68 -39 -77 -43 -17 -6 -18 -228 -18 -4472 0 -3506 -3 -4469 -12 -4485 -8
-13 -9 -23 -3 -29 21 -19 7758 -4481 7771 -4481 8 0 14 5 14 11 0 6 7 8 16 5
9 -3 72 27 157 76 78 45 1753 1011 3722 2148 1969 1137 3634 2097 3700 2135
66 37 129 77 140 87 11 10 28 24 38 31 16 11 17 224 16 4442 -1 2437 -4 4458
-8 4492 l-6 62 -3865 2232 c-2126 1227 -3870 2233 -3877 2236 -6 2 -15 -2 -20
-10z m-3401 -3065 c6 -16 1192 -696 1210 -695 17 2 18 -63 18 -1320 0 -727 3
-1636 7 -2019 l6 -698 2159 0 2158 0 0 2005 0 2004 43 25 c23 13 213 123 422
243 209 121 471 272 582 336 111 65 206 117 211 117 5 0 166 -91 358 -202 192
-111 471 -272 619 -357 l270 -156 2 -3752 3 -3751 -328 -188 c-180 -103 -458
-263 -619 -356 -161 -92 -295 -168 -298 -168 -3 0 -6 163 -7 363 l-3 362 -5
-370 -5 -369 -620 -358 -620 -358 -3 707 c-1 388 0 708 2 710 2 2 133 -71 292
-163 159 -92 314 -180 344 -197 30 -16 176 -99 323 -184 148 -85 270 -153 273
-151 4 5 -183 113 -911 528 l-324 185 -1 508 0 507 -2160 0 -2160 0 -1 -307
c0 -170 -1 -398 -2 -507 l-2 -200 -145 -84 c-257 -149 -1082 -622 -1086 -622
-2 0 -5 161 -6 358 l-3 357 -5 -365 -5 -364 -610 -353 c-335 -193 -613 -352
-617 -353 -5 0 -8 317 -8 705 0 388 2 705 4 705 3 0 277 -158 611 -351 334
-193 608 -349 611 -347 2 3 -272 164 -609 359 l-614 354 -5 2675 c-3 1471 -5
3163 -3 3758 l2 1084 619 358 c340 197 622 359 626 359 3 1 8 -3 10 -7z m1237
-8947 c0 -399 -3 -705 -8 -705 -9 0 -1201 686 -1213 698 -4 5 1205 712 1218
712 1 0 2 -317 3 -705z m6821 -6 l0 -711 -32 20 c-18 11 -292 169 -608 351
-316 183 -579 336 -583 340 -4 4 117 79 269 167 152 87 426 245 608 351 182
105 334 192 339 192 4 1 7 -319 7 -710z m-8070 -711 l0 -703 -578 -333 c-317
-183 -596 -344 -619 -358 l-43 -25 0 700 c0 386 3 701 6 701 4 0 276 -156 606
-346 330 -190 601 -344 604 -341 3 2 -267 161 -600 353 -342 198 -599 352
-593 356 174 103 1204 697 1210 697 4 1 7 -315 7 -701z m663 327 c305 -176
552 -323 548 -327 -3 -3 -136 -81 -296 -173 -159 -92 -422 -244 -583 -337
-162 -93 -300 -172 -308 -175 -12 -4 -14 96 -14 692 l0 697 49 -29 c27 -15
299 -172 604 -348z m6157 -331 c0 -409 -4 -704 -9 -702 -5 2 -282 160 -615
353 -560 323 -604 350 -583 362 12 7 285 165 607 352 322 187 588 340 593 340
4 1 7 -317 7 -705z m653 336 c317 -183 576 -334 575 -336 -2 -1 -262 -152
-578 -334 -316 -183 -590 -341 -607 -352 l-33 -20 0 707 0 707 33 -19 c17 -11
292 -169 610 -353z m-1230 -725 c306 -176 555 -323 554 -327 -3 -12 -1211
-707 -1219 -702 -4 3 -8 322 -8 710 l0 705 58 -33 c33 -18 309 -177 615 -353z"/>
</g>
</svg>
